<svg width="550" height="116" viewBox="0 0 550 116" fill="none" xmlns="http://www.w3.org/2000/svg">
<path d="M545.829 114.359C546.856 115.282 548.436 115.198 549.359 114.171C550.282 113.144 550.198 111.563 549.171 110.64L545.829 114.359ZM0.50178 112.406C0.44969 113.785 1.52595 114.946 2.90568 114.998L25.3897 115.847C26.7694 115.899 27.9301 114.823 27.9822 113.443C28.0343 112.063 26.958 110.903 25.5783 110.851L5.59254 110.096L6.34708 90.1103C6.39917 88.7305 5.32291 87.5698 3.94318 87.5177C2.56345 87.4656 1.40273 88.5419 1.35064 89.9216L0.50178 112.406ZM549.171 110.64C502.793 68.9592 419.83 18.995 321.454 4.41443C222.956 -10.1842 109.097 10.7133 1.30018 110.667L4.69982 114.333C111.303 15.4865 223.61 -5.03265 320.721 9.3604C417.953 23.7714 500.04 73.2072 545.829 114.359L549.171 110.64Z" fill="#F7F7F7"/>
</svg>
