<svg width="738" height="128" viewBox="0 0 738 128" fill="none" xmlns="http://www.w3.org/2000/svg">
<g clip-path="url(#clip0_271_615)">
<path d="M114.271 13.6476C102.949 13.6476 92.4528 17.2129 83.8117 23.2694C97.6518 32.9726 106.714 49.1023 106.714 67.3713C106.714 85.6402 97.6518 101.77 83.8117 111.473C92.4528 117.53 102.94 121.095 114.271 121.095C143.744 121.095 167.632 97.0403 167.632 67.3622C167.632 37.6842 143.744 13.6476 114.271 13.6476Z" fill="#705EB6"/>
<path d="M60.9181 67.3807C60.9181 49.1117 69.9805 32.982 83.8207 23.2789C75.1795 17.2223 64.6919 13.657 53.3616 13.657C23.8886 13.648 0 37.7027 0 67.3807C0 97.0587 23.8886 121.113 53.3616 121.113C64.6829 121.113 75.1795 117.548 83.8207 111.492C69.9805 101.788 60.9181 85.6587 60.9181 67.3897V67.3807Z" fill="#F7F7F7"/>
<path d="M212.174 53.146C212.174 44.5441 211.887 37.2149 211.591 31.1583H230.182L231.195 40.4643H231.634C234.682 36.0956 240.929 29.6058 253.129 29.6058C262.281 29.6058 269.542 34.1189 272.59 41.3037H272.877C275.494 37.6391 278.685 34.9583 282.029 32.9906C285.946 30.7341 290.302 29.6058 295.537 29.6058C309.189 29.6058 319.497 38.9118 319.497 59.4914V100.091H298.002V62.5964C298.002 52.5864 294.659 46.8097 287.55 46.8097C282.468 46.8097 278.837 50.1945 277.385 54.2833C276.803 55.8358 276.516 58.0924 276.516 59.7803V100.1H255.021V61.4772C255.021 52.7399 251.829 46.8187 244.856 46.8187C239.19 46.8187 235.856 51.0429 234.547 54.5722C233.821 56.2601 233.678 58.2368 233.678 59.9247V100.1H212.183V53.146H212.174Z" fill="#F7F7F7"/>
<path d="M351.14 11.9867C351.14 17.9079 346.496 22.7008 339.236 22.7008C331.975 22.7008 327.619 17.9079 327.762 11.9867C327.619 5.78577 332.262 1.12827 339.379 1.12827C346.496 1.12827 350.996 5.77675 351.14 11.9867ZM328.345 100.091V31.1493H350.414V100.082H328.345V100.091Z" fill="#F7F7F7"/>
<path d="M428.255 0V79.5024C428.255 87.2559 428.542 95.4336 428.838 100.082H409.234L408.221 89.9367H407.934C403.435 97.6902 394.865 101.635 385.713 101.635C368.87 101.635 355.362 87.6801 355.362 66.252C355.218 42.9916 370.17 29.5968 387.165 29.5968C395.878 29.5968 402.699 32.5574 405.9 37.3503H406.186V0H428.255ZM406.186 60.3309C406.186 59.2026 406.043 57.6501 405.9 56.5218C404.591 50.7451 399.804 45.9522 392.974 45.9522C382.952 45.9522 377.726 54.6895 377.726 65.548C377.726 77.2459 383.678 84.5751 392.83 84.5751C399.222 84.5751 404.304 80.3419 405.613 74.2853C406.052 72.7328 406.195 71.1803 406.195 69.348V60.3218L406.186 60.3309Z" fill="#F7F7F7"/>
<path d="M437.255 54.2743C437.255 45.2482 436.968 37.5037 436.672 31.1583H455.837L456.85 40.7441H457.137C462.363 33.4149 470.493 29.6058 480.81 29.6058C496.344 29.6058 510.292 42.7118 510.292 64.7086C510.292 89.8013 493.879 101.644 478.058 101.644C469.489 101.644 462.811 98.2588 459.611 93.7457H459.324V128H437.255V54.2743ZM459.324 70.4853C459.324 72.1732 459.467 73.7257 459.763 74.9984C461.215 80.7751 466.298 85.1438 472.689 85.1438C482.271 85.1438 487.936 77.3903 487.936 65.6924C487.936 54.6985 482.854 46.3764 472.976 46.3764C466.728 46.3764 461.215 50.8895 459.763 57.2349C459.476 58.3632 459.324 59.7712 459.324 61.0439V70.4853Z" fill="#F7F7F7"/>
<path d="M585.956 64.8439C585.956 90.0811 567.508 101.635 548.487 101.635C527.718 101.635 511.744 88.3842 511.744 66.1076C511.744 43.831 526.848 29.5968 549.643 29.5968C572.438 29.5968 585.947 44.1199 585.947 64.8349L585.956 64.8439ZM534.548 65.548C534.548 77.3903 539.631 86.2721 549.07 86.2721C557.639 86.2721 563.152 77.959 563.152 65.548C563.152 55.2582 559.082 44.8239 549.07 44.8239C538.465 44.8239 534.548 55.3936 534.548 65.548Z" fill="#F7F7F7"/>
<path d="M613.699 11.9867C613.699 17.9079 609.056 22.7008 601.795 22.7008C594.534 22.7008 590.178 17.9079 590.321 11.9867C590.178 5.78577 594.821 1.12827 601.938 1.12827C609.056 1.12827 613.555 5.77675 613.699 11.9867ZM590.904 100.091V31.1493H612.973V100.082H590.904V100.091Z" fill="#F7F7F7"/>
<path d="M621.972 53.146C621.972 44.5441 621.686 37.2149 621.39 31.1583H640.554L641.567 40.5997H642.006C644.911 36.231 652.171 29.6058 663.932 29.6058C678.453 29.6058 689.344 38.9118 689.344 59.2116V100.091H667.275V61.8924C667.275 53.0106 664.084 46.9541 656.098 46.9541C650.002 46.9541 646.372 51.0429 644.92 54.9874C644.337 56.3955 644.05 58.3722 644.05 60.3399V100.091H621.981V53.146H621.972Z" fill="#F7F7F7"/>
<path d="M722.17 12.4019V31.1493H738V46.936H722.17V71.8844C722.17 80.1975 724.205 84.0065 730.883 84.0065C733.93 84.0065 735.239 83.8621 737.417 83.4469L737.561 99.6579C734.657 100.786 729.431 101.635 723.183 101.635C716.066 101.635 710.114 99.0982 706.627 95.578C702.557 91.4892 700.531 84.864 700.531 75.1338V46.936H691.092V31.1493H700.531V18.1787L722.17 12.4019Z" fill="#F7F7F7"/>
</g>
<defs>
<clipPath id="clip0_271_615">
<rect width="738" height="128" fill="white"/>
</clipPath>
</defs>
</svg>
