<svg width="1253" height="967" viewBox="0 0 1253 967" fill="none" xmlns="http://www.w3.org/2000/svg">
<g filter="url(#filter0_f_23_655)">
<path d="M200.64 528.333C193.985 385.481 517.622 44.8287 524.607 283.257C531.591 521.685 571.388 254.766 870.019 350.972C1168.65 447.178 876.385 753.145 618.533 765.158C360.682 777.171 207.296 671.185 200.64 528.333Z" fill="#EF9364"/>
</g>
<g filter="url(#filter1_f_23_655)">
<path fill-rule="evenodd" clip-rule="evenodd" d="M1077.06 576.681C1079.4 608.647 1022.55 622.537 1016.56 654.459C1011.42 681.861 1055.42 701.133 1048.62 728.276C1042.48 752.805 1011.1 764.991 986.558 774.268C963.19 783.102 938.231 781.026 913.707 779.274C889.817 777.567 867.47 772.218 845.334 764.177C818.437 754.407 782.435 752.055 770.145 727.126C757.859 702.208 774.012 670.963 786.568 644.984C796.86 623.687 822.645 613.498 834.909 593.119C848.715 570.18 837.673 532.521 861.861 519.878C885.779 507.377 910.254 537.138 936.593 539.972C960.458 542.54 984.857 529.572 1007.87 535.587C1034.73 542.605 1075.09 549.726 1077.06 576.681Z" fill="#BCCC57"/>
</g>
<defs>
<filter id="filter0_f_23_655" x="0.538818" y="0.861816" width="1195.59" height="965.225" filterUnits="userSpaceOnUse" color-interpolation-filters="sRGB">
<feFlood flood-opacity="0" result="BackgroundImageFix"/>
<feBlend mode="normal" in="SourceGraphic" in2="BackgroundImageFix" result="shape"/>
<feGaussianBlur stdDeviation="100" result="effect1_foregroundBlur_23_655"/>
</filter>
<filter id="filter1_f_23_655" x="590.762" y="341.826" width="661.369" height="613.995" filterUnits="userSpaceOnUse" color-interpolation-filters="sRGB">
<feFlood flood-opacity="0" result="BackgroundImageFix"/>
<feBlend mode="normal" in="SourceGraphic" in2="BackgroundImageFix" result="shape"/>
<feGaussianBlur stdDeviation="87.5" result="effect1_foregroundBlur_23_655"/>
</filter>
</defs>
</svg>
